<?xml version="1.0" encoding="UTF-8"?>
<svg version="1.1" xmlns="http://www.w3.org/2000/svg" width="400" height="150">
<path d="M0 0 C-1.59376172 4.44353434 -5.01900873 6.80769816 -8.5625 9.6875 C-9.75142246 10.67042734 -10.94023048 11.65349311 -12.12890625 12.63671875 C-13.07636719 13.41660156 -14.02382812 14.19648437 -15 15 C-15.495 15.495 -15.495 15.495 -16 16 C-23.12678602 17.12659966 -30.42670427 17.26937848 -37.625 17.5625 C-38.62917969 17.60568359 -39.63335937 17.64886719 -40.66796875 17.69335938 C-43.11188383 17.79809859 -45.55587617 17.90027256 -48 18 C-48.19378738 18.70299728 -48.38757477 19.40599457 -48.5872345 20.1302948 C-50.41835285 26.76780145 -52.25666163 33.40327894 -54.10298634 40.03657055 C-55.05185906 43.44656034 -55.9979739 46.85726476 -56.93774414 50.26977539 C-58.01925365 54.19649546 -59.11282594 58.11976734 -60.20703125 62.04296875 C-60.54152786 63.26396774 -60.87602448 64.48496674 -61.22065735 65.7429657 C-61.70081551 67.45417351 -61.70081551 67.45417351 -62.19067383 69.19995117 C-62.46825027 70.20144699 -62.74582672 71.20294281 -63.03181458 72.23478699 C-64.68779187 76.96438718 -67.0933584 80.36435973 -70.72265625 83.76953125 C-71.42583984 84.43017578 -72.12902344 85.09082031 -72.85351562 85.77148438 C-73.94696289 86.78178711 -73.94696289 86.78178711 -75.0625 87.8125 C-75.79533203 88.50537109 -76.52816406 89.19824219 -77.28320312 89.91210938 C-82.74203356 95 -82.74203356 95 -85 95 C-81.18246282 75.36980825 -76.97464794 55.83275981 -72.70324707 36.29760742 C-71.82987297 32.30096485 -70.95900525 28.30377617 -70.08789062 24.30664062 C-68.39430062 16.53724116 -66.69805973 8.7684238 -65 1 C-60.87770516 0.67837928 -56.75527159 0.35857046 -52.6328125 0.0390625 C-50.89994995 -0.09616821 -50.89994995 -0.09616821 -49.13208008 -0.23413086 C-5.6714051 -3.59615411 -5.6714051 -3.59615411 0 0 Z " fill="#06070B" transform="translate(113,33)"/>
<path d="M0 0 C5.28 0 10.56 0 16 0 C19.7452423 3.7452423 20.62081539 4.8880711 22.10546875 9.60546875 C22.44900391 10.67087891 22.79253906 11.73628906 23.14648438 12.83398438 C23.49001953 13.94064453 23.83355469 15.04730469 24.1875 16.1875 C24.88698909 18.39006545 25.58868986 20.59193017 26.29296875 22.79296875 C26.5974292 23.7677417 26.90188965 24.74251465 27.21557617 25.74682617 C27.79632474 27.94142723 27.79632474 27.94142723 29 29 C29.25692627 28.26362305 29.51385254 27.52724609 29.77856445 26.76855469 C30.94925597 23.42643198 32.13074593 20.08822623 33.3125 16.75 C33.71662109 15.59113281 34.12074219 14.43226562 34.53710938 13.23828125 C35.13168945 11.56572266 35.13168945 11.56572266 35.73828125 9.859375 C36.09962158 8.83295898 36.46096191 7.80654297 36.83325195 6.74902344 C38 4 38 4 41 0 C46.28 0 51.56 0 57 0 C57 16.5 57 33 57 50 C52.71 50 48.42 50 44 50 C43.505 37.13 43.505 37.13 43 24 C40.03 32.58 37.06 41.16 34 50 C30.7 50 27.4 50 24 50 C20.12088056 41.13579941 16.98017248 32.19596079 14 23 C13.67 31.91 13.34 40.82 13 50 C8.71 50 4.42 50 0 50 C0 33.5 0 17 0 0 Z " fill="#E81F20" transform="translate(271,42)"/>
<path d="M0 0 C0.33 0 0.66 0 1 0 C1 9.57 1 19.14 1 29 C-4.27463221 30.97798708 -9.46461459 32.82990202 -14.84277344 34.44848633 C-15.95213509 34.78581535 -15.95213509 34.78581535 -17.08390808 35.12995911 C-19.50831467 35.86647814 -21.93382475 36.59928829 -24.359375 37.33203125 C-26.07129469 37.85123594 -27.78314648 38.37066456 -29.49493408 38.89030457 C-33.99756578 40.25645441 -38.50115567 41.61941885 -43.00494385 42.98175049 C-47.5208432 44.34841877 -52.03574872 45.71836199 -56.55078125 47.08789062 C-61.6651299 48.63863164 -66.77963125 50.18886826 -71.89447021 51.73799133 C-72.67656986 51.97488521 -73.45866951 52.21177908 -74.26446915 52.45585155 C-75.81045354 52.92326181 -77.35680143 53.38947167 -78.90353012 53.85441303 C-83.11764675 55.12174825 -87.32365999 56.41108783 -91.52307129 57.72640991 C-92.43704304 58.00926944 -93.35101479 58.29212896 -94.29268265 58.58355999 C-96.06054785 59.1307707 -97.82634901 59.68470685 -99.58973312 60.24619007 C-100.38457737 60.4905313 -101.17942162 60.73487253 -101.99835205 60.98661804 C-103.05067457 61.31681458 -103.05067457 61.31681458 -104.12425613 61.65368176 C-106 62 -106 62 -109 61 C-100.52652025 54.51340516 -91.965935 48.22854071 -83.125 42.25 C-80.77042603 40.6406368 -78.41807907 39.02810699 -76.06738281 37.41308594 C-74.28052607 36.19174361 -72.4812111 34.98866527 -70.6796875 33.7890625 C-64.93689181 29.68706558 -62.66581792 26.32947287 -61.38330078 19.30810547 C-61.19356689 18.16559326 -61.19356689 18.16559326 -61 17 C-54.97741057 16.34643378 -48.99099836 15.92869081 -42.93359375 15.7890625 C-41.70576172 15.76070312 -40.47792969 15.73234375 -39.21289062 15.703125 C-36.69220821 15.65096396 -34.17134984 15.60671624 -31.65039062 15.5703125 C-21.79643828 15.32176299 -12.90809543 14.62961103 -5.46875 7.62890625 C-3.32496396 5.25135631 -1.68350432 2.71950698 0 0 Z " fill="#06070B" transform="translate(117,86)"/>
<path d="M0 0 C7.4559375 -0.0928125 7.4559375 -0.0928125 15.0625 -0.1875 C16.61718994 -0.21481201 18.17187988 -0.24212402 19.77368164 -0.27026367 C21.01496826 -0.27775635 22.25625488 -0.28524902 23.53515625 -0.29296875 C24.797229 -0.3086792 26.05930176 -0.32438965 27.35961914 -0.34057617 C32.2286872 0.11494995 36.32472321 1.32472321 39.875 4.875 C42.83287178 10.46209113 42.44428944 16.61699302 41.3125 22.6875 C39.8291093 26.43129559 38.32265818 27.81404067 35 30 C36.45115322 34.57888152 38.20581904 38.97649435 40.125 43.375 C40.40214844 44.01566406 40.67929688 44.65632813 40.96484375 45.31640625 C41.64100385 46.87856925 42.32018707 48.43942315 43 50 C31.20272727 50.93272727 31.20272727 50.93272727 26.9375 47.625 C24.21656642 43.25057601 21 37.21210799 21 32 C18.36 32 15.72 32 13 32 C13 37.94 13 43.88 13 50 C8.71 50 4.42 50 0 50 C0 33.5 0 17 0 0 Z M13 11 C13 14.3 13 17.6 13 21 C15.10353495 21.0810206 17.20795952 21.13919907 19.3125 21.1875 C20.48425781 21.22230469 21.65601563 21.25710937 22.86328125 21.29296875 C25.95389028 21.25969046 25.95389028 21.25969046 27.9296875 19.68359375 C29.29984144 17.89158103 29.29984144 17.89158103 28.8125 14.875 C28.4103125 13.451875 28.4103125 13.451875 28 12 C25.11584117 10.55792059 22.58278472 10.90605113 19.375 10.9375 C17.59222656 10.95103516 17.59222656 10.95103516 15.7734375 10.96484375 C14.40058594 10.98224609 14.40058594 10.98224609 13 11 Z " fill="#E81F20" transform="translate(194,42)"/>
<path d="M0 0 C1.07285502 6.96025781 1.31992495 13.88864226 1.4050293 20.92651367 C1.42665175 22.26564252 1.46080686 23.60462842 1.50756836 24.94311523 C1.81826764 33.96666268 1.29814065 40.23144725 -5 47 C-9.42573521 51.33540271 -12.66555269 54.13333676 -19.10424805 54.11352539 C-20.3351844 54.11341209 -20.3351844 54.11341209 -21.59098816 54.11329651 C-22.9129998 54.10555458 -22.9129998 54.10555458 -24.26171875 54.09765625 C-25.16751175 54.0962413 -26.07330475 54.09482635 -27.00654602 54.09336853 C-29.90023091 54.08777001 -32.79383849 54.07521781 -35.6875 54.0625 C-37.64908742 54.05748481 -39.61067606 54.05292193 -41.57226562 54.04882812 C-46.38154021 54.03780107 -51.190757 54.02053747 -56 54 C-55.35702496 51.37426939 -54.71075589 48.74942697 -54.0625 46.125 C-53.78889648 45.00544922 -53.78889648 45.00544922 -53.50976562 43.86328125 C-52.11328125 38.2265625 -52.11328125 38.2265625 -51 36 C-45.41266607 34.87956518 -39.74470646 34.70108524 -34.0625 34.4375 C-33.18787109 34.39431641 -32.31324219 34.35113281 -31.41210938 34.30664062 C-29.27488005 34.20153099 -27.13745762 34.10036015 -25 34 C-24.75507812 32.80503906 -24.51015625 31.61007813 -24.2578125 30.37890625 C-21.8378308 19.69888498 -19.28897332 13.44877025 -10 7 C-8.30898697 5.65022278 -6.62125525 4.29632003 -4.9375 2.9375 C-1.14739229 0 -1.14739229 0 0 0 Z " fill="#EB1E27" transform="translate(115,41)"/>
<path d="M0 0 C5.28 0 10.56 0 16 0 C27.90553031 28.58109248 27.90553031 28.58109248 32.25 39.625 C32.53689697 40.34478027 32.82379395 41.06456055 33.11938477 41.80615234 C34.2442063 44.69814364 35 46.86641914 35 50 C25.11310996 50.62334158 25.11310996 50.62334158 20.875 48.25 C18.98830347 45.98596416 18.57649923 44.8001391 18 42 C14.72761969 42.02278381 11.45874097 42.10005764 8.1875 42.1875 C7.25873047 42.19330078 6.32996094 42.19910156 5.37304688 42.20507812 C2.8209953 42.28799677 0.48582466 42.41181298 -2 43 C-3.97038956 45.32464736 -3.97038956 45.32464736 -5 48 C-8.16754847 50.26060083 -10.93132726 50.21592078 -14.75 50.125 C-16.22726562 50.09792969 -16.22726562 50.09792969 -17.734375 50.0703125 C-18.48203125 50.04710937 -19.2296875 50.02390625 -20 50 C-17.6415333 42.56676357 -14.82838711 35.34052713 -11.92138672 28.10791016 C-11.12992521 26.1372632 -10.34399077 24.1644768 -9.55859375 22.19140625 C-6.5645518 14.70101902 -3.40112266 7.31680631 0 0 Z M7 15 C6.16280617 17.29032311 5.3301071 19.58210957 4.5 21.875 C4.26152344 22.52597656 4.02304687 23.17695312 3.77734375 23.84765625 C2.45122467 27.33457589 2.45122467 27.33457589 2 31 C5.96 31 9.92 31 14 31 C12.02 25.72 10.04 20.44 8 15 C7.67 15 7.34 15 7 15 Z " fill="#E81F20" transform="translate(356,42)"/>
<path d="M0 0 C4.49625 -0.04125 8.9925 -0.0825 13.625 -0.125 C15.03217285 -0.14320801 16.4393457 -0.16141602 17.88916016 -0.18017578 C19.01112793 -0.1851709 20.1330957 -0.19016602 21.2890625 -0.1953125 C22.43068848 -0.20578613 23.57231445 -0.21625977 24.74853516 -0.22705078 C28.91800203 0.06410436 32.54619794 0.79685347 35.8125 3.5 C38.75808271 7.22073605 38.25897272 11.27695508 38.3125 15.8125 C38.34150391 16.62009766 38.37050781 17.42769531 38.40039062 18.25976562 C38.4429916 22.2609803 38.32971314 24.4504781 36.23046875 27.94921875 C32.85705871 31.05086546 30.25903434 32.26084335 25.671875 32.1953125 C24.5905127 32.18781982 24.5905127 32.18781982 23.48730469 32.18017578 C22.58399414 32.16196777 21.68068359 32.14375977 20.75 32.125 C17.8625 32.08375 14.975 32.0425 12 32 C12 37.94 12 43.88 12 50 C8.04 50 4.08 50 0 50 C0 33.5 0 17 0 0 Z M12 11 C12 14.3 12 17.6 12 21 C13.79158489 21.02696365 15.58328473 21.04637917 17.375 21.0625 C18.87160156 21.07990234 18.87160156 21.07990234 20.3984375 21.09765625 C22.98432453 21.18006602 22.98432453 21.18006602 25 20 C25.16677282 16.58343976 25.16677282 16.58343976 25 13 C23.16262173 10.72783152 23.16262173 10.72783152 20.3984375 10.8046875 C19.40070313 10.82789063 18.40296875 10.85109375 17.375 10.875 C16.37210938 10.89304687 15.36921875 10.91109375 14.3359375 10.9296875 C13.17964844 10.96449219 13.17964844 10.96449219 12 11 Z " fill="#E81F20" transform="translate(147,42)"/>
<path d="M0 0 C-0.61160809 9.54145834 -2.26126479 18.86600912 -3.94140625 28.26171875 C-4.23183795 29.90502518 -4.52186505 31.54840316 -4.81150818 33.19184875 C-5.56864178 37.48158539 -6.33120645 41.77033859 -7.0949707 46.05889893 C-7.87589068 50.44948384 -8.65158133 54.84099224 -9.42773438 59.23242188 C-10.94675446 67.82251833 -12.47152296 76.41158125 -14 85 C-14.66 85 -15.32 85 -16 85 C-16.65427793 75.32499654 -17.30639047 65.64985026 -17.95575714 55.97451591 C-18.25736778 51.48163626 -18.5597174 46.9888089 -18.86376953 42.49609375 C-19.15729712 38.15848379 -19.44886567 33.82074615 -19.73908997 29.48291397 C-19.85002729 27.82991996 -19.96166436 26.17697274 -20.07402039 24.52407455 C-20.23155143 22.20480995 -20.38656916 19.88538975 -20.54101562 17.56591797 C-20.58776932 16.88618423 -20.63452301 16.2064505 -20.68269348 15.50611877 C-20.93556387 11.66348767 -21.04370987 7.85060688 -21 4 C-18.43923903 3.32595716 -15.87673417 2.660586 -13.3125 2 C-12.59126953 1.80921875 -11.87003906 1.6184375 -11.12695312 1.421875 C-10.06831055 1.15117188 -10.06831055 1.15117188 -8.98828125 0.875 C-8.02208862 0.62363281 -8.02208862 0.62363281 -7.03637695 0.3671875 C-4.66214942 -0.06091923 -2.40830245 -0.02329331 0 0 Z " fill="#EB1E27" transform="translate(41,32)"/>
<path d="M0 0 C0.495 0.99 0.495 0.99 1 2 C-0.2375 2.96486328 -0.2375 2.96486328 -1.5 3.94921875 C-2.66693316 4.86163844 -3.8335756 5.77443 -5 6.6875 C-5.6185083 7.17138184 -6.2370166 7.65526367 -6.87426758 8.15380859 C-10.40886915 10.92983063 -13.91417013 13.73648543 -17.38671875 16.58984375 C-18.46276367 17.47313354 -18.46276367 17.47313354 -19.56054688 18.37426758 C-20.96208602 19.52789903 -22.36060751 20.68520787 -23.75585938 21.84643555 C-24.39716797 22.37406494 -25.03847656 22.90169434 -25.69921875 23.4453125 C-26.26471436 23.91469238 -26.83020996 24.38407227 -27.4128418 24.86767578 C-29 26 -29 26 -32 27 C-32.41507813 26.51249268 -32.83015625 26.02498535 -33.2578125 25.52270508 C-36.27200899 22.8882399 -40.18664522 23.61268759 -44 23.6875 C-44.9295752 23.69587891 -45.85915039 23.70425781 -46.81689453 23.71289062 C-61.89130507 23.95296724 -76.95787093 25.03566231 -92 26 C-91.67 25.34 -91.34 24.68 -91 24 C-88.32339012 23.12759111 -85.68664712 22.37653232 -82.96362305 21.67749023 C-81.70020081 21.34296341 -81.70020081 21.34296341 -80.41125488 21.00167847 C-77.61337846 20.2629295 -74.81262806 19.53575132 -72.01171875 18.80859375 C-70.07198512 18.29888135 -68.13243749 17.78846067 -66.19306946 17.27735901 C-61.07543973 15.93073583 -55.95529733 14.59391637 -50.83459473 13.2590332 C-45.63100125 11.90066138 -40.42987896 10.53289691 -35.22851562 9.16601562 C-27.62847145 7.17016218 -20.02747797 5.17799723 -12.42456055 3.19311523 C-11.62699844 2.98478561 -10.82943634 2.77645599 -10.00770569 2.56181335 C-6.67546218 1.69258794 -3.34190997 0.83125271 0 0 Z " fill="#EB1E27" transform="translate(148,3)"/>
<path d="M0 0 C3.63 0 7.26 0 11 0 C11 16.5 11 33 11 50 C7.37 50 3.74 50 0 50 C0 33.5 0 17 0 0 Z " fill="#E81F20" transform="translate(246,42)"/>
<path d="M0 0 C0.99 0 1.98 0 3 0 C4.6875 2 4.6875 2 6 4 C6.66 2.68 7.32 1.36 8 0 C10.31 0 12.62 0 15 0 C13.8905928 3.48670834 12.73662334 6.77484237 11 10 C7 10 7 10 4 9 C2.00603743 6.33916031 0 3.38757675 0 0 Z M10 2 C11 4 11 4 11 4 Z " fill="#060807" transform="translate(205,99)"/>
<path d="M0 0 C4 1 4 1 6 3 C6.33 2.01 6.66 1.02 7 0 C7.99 0 8.98 0 10 0 C10 3.3 10 6.6 10 10 C8.68 10 7.36 10 6 10 C5.34 9.01 4.68 8.02 4 7 C3.67 7.99 3.34 8.98 3 10 C2.01 10 1.02 10 0 10 C0 6.7 0 3.4 0 0 Z " fill="#060807" transform="translate(325,99)"/>
<path d="M0 0 C3 1 3 1 5 4 C5.66 2.68 6.32 1.36 7 0 C7.99 0 8.98 0 10 0 C10 3.3 10 6.6 10 10 C9.34 10 8.68 10 8 10 C7.67 9.34 7.34 8.68 7 8 C6.67 8.66 6.34 9.32 6 10 C4 10 2 10 0 10 C0 6.7 0 3.4 0 0 Z " fill="#FFFFFF" transform="translate(372,117)"/>
<path d="M0 0 C6.42527261 -0.48492623 6.42527261 -0.48492623 9 1.6875 C10.25669615 4.59360984 10.03951115 6.04139135 9 9 C6.04335481 10.4783226 3.25770263 10.06032783 0 10 C0 6.7 0 3.4 0 0 Z M3 3 C3 4.32 3 5.64 3 7 C4.32 6.67 5.64 6.34 7 6 C6.67 5.01 6.34 4.02 6 3 C5.01 3 4.02 3 3 3 Z " fill="#060807" transform="translate(309,99)"/>
<path d="M0 0 C1.31668238 5.3864279 1.31668238 5.3864279 0 7.9375 C-3.11004763 9.58971281 -5.65727278 8.69377357 -9 8 C-10.31668238 2.6135721 -10.31668238 2.6135721 -9 0.0625 C-5.88995237 -1.58971281 -3.34272722 -0.69377357 0 0 Z M-6 2 C-6 3.32 -6 4.64 -6 6 C-4.68 5.67 -3.36 5.34 -2 5 C-2.33 4.01 -2.66 3.02 -3 2 C-3.99 2 -4.98 2 -6 2 Z " fill="#060807" transform="translate(235,100)"/>
<path d="M0 0 C1.9375 1.6875 1.9375 1.6875 3 4 C2.33228817 6.39263407 1.77902615 8.22097385 0 10 C-2.9375 10.1875 -2.9375 10.1875 -6 10 C-8 8 -8 8 -8.3125 5 C-8.209375 4.01 -8.10625 3.02 -8 2 C-4.77856724 -0.14762184 -3.7404533 -0.561068 0 0 Z M-4 3 C-4.33 4.32 -4.66 5.64 -5 7 C-3.35 6.67 -1.7 6.34 0 6 C-0.33 5.01 -0.66 4.02 -1 3 C-1.99 3 -2.98 3 -4 3 Z " fill="#060807" transform="translate(198,99)"/>
<path d="M0 0 C3.375 -0.125 3.375 -0.125 7 0 C9 2 9 2 9.25 5 C9 8 9 8 7 10 C3.375 10.125 3.375 10.125 0 10 C0 6.7 0 3.4 0 0 Z M3 3 C3 4.32 3 5.64 3 7 C4.32 6.67 5.64 6.34 7 6 C6.67 5.01 6.34 4.02 6 3 C5.01 3 4.02 3 3 3 Z " fill="#060807" transform="translate(383,99)"/>
<path d="M0 0 C3.375 -0.125 3.375 -0.125 7 0 C9 2 9 2 9.25 5 C9 8 9 8 7 10 C3.375 10.125 3.375 10.125 0 10 C0 6.7 0 3.4 0 0 Z M3 3 C3 4.32 3 5.64 3 7 C4.32 6.67 5.64 6.34 7 6 C6.67 5.01 6.34 4.02 6 3 C5.01 3 4.02 3 3 3 Z " fill="#060807" transform="translate(270,99)"/>
<path d="M0 0 C0.99 0 1.98 0 3 0 C3 1.32 3 2.64 3 4 C4.32 4 5.64 4 7 4 C7 2.68 7 1.36 7 0 C7.99 0 8.98 0 10 0 C10 3.3 10 6.6 10 10 C9.01 10 8.02 10 7 10 C7 8.68 7 7.36 7 6 C5.68 6 4.36 6 3 6 C3 7.32 3 8.64 3 10 C2.01 10 1.02 10 0 10 C0 6.7 0 3.4 0 0 Z " fill="#060807" transform="translate(366,99)"/>
<path d="M0 0 C1.98 0 3.96 0 6 0 C7.83691257 3.78187881 8.15837626 5.94568308 7 10 C4.69 10 2.38 10 0 10 C0 6.7 0 3.4 0 0 Z M2 6 C2 6.66 2 7.32 2 8 C2.99 7.67 3.98 7.34 5 7 C4.01 6.67 3.02 6.34 2 6 Z " fill="#060807" transform="translate(352,99)"/>
<path d="M0 0 C2.33294775 -0.04241723 4.66702567 -0.04092937 7 0 C8.78069592 1.78069592 8 4.59661951 8 7 C8.33 7.99 8.66 8.98 9 10 C5.125 9.125 5.125 9.125 4 8 C3.67 8.66 3.34 9.32 3 10 C2.01 10 1.02 10 0 10 C0 6.7 0 3.4 0 0 Z M3 2 C3 2.99 3 3.98 3 5 C3.99 4.67 4.98 4.34 6 4 C5.67 3.34 5.34 2.68 5 2 C4.34 2 3.68 2 3 2 Z " fill="#060807" transform="translate(242,99)"/>
<path d="M0 0 C1.4540625 0.0309375 1.4540625 0.0309375 2.9375 0.0625 C2.9375 3.0325 2.9375 6.0025 2.9375 9.0625 C1.2875 9.3925 -0.3625 9.7225 -2.0625 10.0625 C-3.91314319 6.93953962 -4.35606154 4.68309232 -4.0625 1.0625 C-3.0625 0.0625 -3.0625 0.0625 0 0 Z " fill="#060807" transform="translate(299.0625,98.9375)"/>
<path d="M0 0 C1.2065625 0.0309375 1.2065625 0.0309375 2.4375 0.0625 C3.47755702 3.44268531 3.51754482 6.5405279 3.4375 10.0625 C1.0625 10.6875 1.0625 10.6875 -1.5625 11.0625 C-3.5625 9.0625 -3.5625 9.0625 -3.79296875 7.15234375 C-3.6519597 0.08907219 -3.6519597 0.08907219 0 0 Z M-0.5625 5.0625 C-0.5625 6.3825 -0.5625 7.7025 -0.5625 9.0625 C0.0975 8.7325 0.7575 8.4025 1.4375 8.0625 C1.1075 7.0725 0.7775 6.0825 0.4375 5.0625 C0.1075 5.0625 -0.2225 5.0625 -0.5625 5.0625 Z " fill="#FFFFFF" transform="translate(317.5625,115.9375)"/>
<path d="M0 0 C2.5 0.125 2.5 0.125 3.5 1.125 C3.57179964 2.64428038 3.58392007 4.16667482 3.5625 5.6875 C3.55347656 6.51378906 3.54445313 7.34007813 3.53515625 8.19140625 C3.51775391 9.14853516 3.51775391 9.14853516 3.5 10.125 C1.85 10.455 0.2 10.785 -1.5 11.125 C-3.58997373 7.72879269 -3.7632246 5.07336905 -3.5 1.125 C-2.5 0.125 -2.5 0.125 0 0 Z M-0.5 2.125 C-0.5 3.115 -0.5 4.105 -0.5 5.125 C0.16 5.125 0.82 5.125 1.5 5.125 C1.5 4.135 1.5 3.145 1.5 2.125 C0.84 2.125 0.18 2.125 -0.5 2.125 Z M-1.5 7.125 C-0.84 7.785 -0.18 8.445 0.5 9.125 C0.83 8.465 1.16 7.805 1.5 7.125 C0.51 7.125 -0.48 7.125 -1.5 7.125 Z " fill="#FFFFFF" transform="translate(256.5,115.875)"/>
<path d="M0 0 C2.5 0.125 2.5 0.125 3.5 1.125 C3.77314815 6.86111111 3.77314815 6.86111111 3.5 9.125 C2.84 9.785 2.18 10.445 1.5 11.125 C-0.625 10.75 -0.625 10.75 -2.5 10.125 C-3.4097643 7.05454549 -3.67299981 4.32549657 -3.5 1.125 C-2.5 0.125 -2.5 0.125 0 0 Z M-0.5 2.125 C-0.83 3.115 -1.16 4.105 -1.5 5.125 C-0.51 5.125 0.48 5.125 1.5 5.125 C1.17 4.135 0.84 3.145 0.5 2.125 C0.17 2.125 -0.16 2.125 -0.5 2.125 Z M-1.5 7.125 C-0.84 7.785 -0.18 8.445 0.5 9.125 C0.83 8.465 1.16 7.805 1.5 7.125 C0.51 7.125 -0.48 7.125 -1.5 7.125 Z " fill="#FFFFFF" transform="translate(329.5,115.875)"/>
<path d="M0 0 C2.5 0.125 2.5 0.125 3.5 1.125 C3.77314815 6.86111111 3.77314815 6.86111111 3.5 9.125 C2.84 9.785 2.18 10.445 1.5 11.125 C-0.625 10.75 -0.625 10.75 -2.5 10.125 C-3.4097643 7.05454549 -3.67299981 4.32549657 -3.5 1.125 C-2.5 0.125 -2.5 0.125 0 0 Z M-0.5 2.125 C-0.83 3.115 -1.16 4.105 -1.5 5.125 C-0.51 5.125 0.48 5.125 1.5 5.125 C1.17 4.135 0.84 3.145 0.5 2.125 C0.17 2.125 -0.16 2.125 -0.5 2.125 Z M-1.5 7.125 C-0.84 7.785 -0.18 8.445 0.5 9.125 C0.83 8.465 1.16 7.805 1.5 7.125 C0.51 7.125 -0.48 7.125 -1.5 7.125 Z " fill="#FFFFFF" transform="translate(268.5,115.875)"/>
<path d="M0 0 C2.31 0 4.62 0 7 0 C7 3.33333333 7 6.66666667 7 10 C5.35 10.33 3.7 10.66 2 11 C1.34 9.68 0.68 8.36 0 7 C1.32 7.33 2.64 7.66 4 8 C3.67 7.34 3.34 6.68 3 6 C2.01 6 1.02 6 0 6 C0 4.02 0 2.04 0 0 Z " fill="#FFFFFF" transform="translate(302,116)"/>
<path d="M0 0 C2.31 0 4.62 0 7 0 C7 3.33333333 7 6.66666667 7 10 C5.35 10.33 3.7 10.66 2 11 C1.34 9.68 0.68 8.36 0 7 C1.32 7.33 2.64 7.66 4 8 C3.67 7.34 3.34 6.68 3 6 C2.01 6 1.02 6 0 6 C0 4.02 0 2.04 0 0 Z " fill="#FFFFFF" transform="translate(241,116)"/>
<path d="M0 0 C1.65 0 3.3 0 5 0 C6.50662097 3.01324195 6.17770373 5.68286377 6 9 C5.34 9.66 4.68 10.32 4 11 C1.375 10.625 1.375 10.625 -1 10 C-2.23076923 4.58461538 -2.23076923 4.58461538 -1.0625 1.625 C-0.5365625 0.820625 -0.5365625 0.820625 0 0 Z M1 2 C1 3.98 1 5.96 1 8 C1.99 7.67 2.98 7.34 4 7 C3.67 5.35 3.34 3.7 3 2 C2.34 2 1.68 2 1 2 Z " fill="#FFFFFF" transform="translate(211,116)"/>
<path d="M0 0 C1.32 0 2.64 0 4 0 C7 5.625 7 5.625 7 9 C6.01 9 5.02 9 4 9 C4 8.34 4 7.68 4 7 C2.68 7 1.36 7 0 7 C0 7.66 0 8.32 0 9 C-0.99 9 -1.98 9 -3 9 C-2.01 6.03 -1.02 3.06 0 0 Z " fill="#060807" transform="translate(149,100)"/>
<path d="M0 0 C1.98 0 3.96 0 6 0 C6.22174933 1.45635371 6.42698698 2.91522956 6.625 4.375 C6.74101562 5.18710938 6.85703125 5.99921875 6.9765625 6.8359375 C6.98429688 7.55007812 6.99203125 8.26421875 7 9 C6.34 9.66 5.68 10.32 5 11 C2.375 10.625 2.375 10.625 0 10 C0 9.01 0 8.02 0 7 C1.32 7.33 2.64 7.66 4 8 C3.67 7.34 3.34 6.68 3 6 C2.01 6 1.02 6 0 6 C0 4.02 0 2.04 0 0 Z " fill="#FFFFFF" transform="translate(178,116)"/>
<path d="M0 0 C1.65 0 3.3 0 5 0 C5.74926071 3.66305234 6.2380014 6.42355152 5 10 C3.1875 10.6875 3.1875 10.6875 1 11 C-0.75 9.5625 -0.75 9.5625 -2 8 C-1.01 7.67 -0.02 7.34 1 7 C1.33 7.33 1.66 7.66 2 8 C2.33 7.34 2.66 6.68 3 6 C2.34 6 1.68 6 1 6 C1 5.34 1 4.68 1 4 C0.34 4 -0.32 4 -1 4 C-0.67 2.68 -0.34 1.36 0 0 Z M1 2 C1 2.66 1 3.32 1 4 C1.66 4 2.32 4 3 4 C3 3.34 3 2.68 3 2 C2.34 2 1.68 2 1 2 Z " fill="#FFFFFF" transform="translate(223,116)"/>
<path d="M0 0 C1.2065625 0.0309375 1.2065625 0.0309375 2.4375 0.0625 C3.94412097 3.07574195 3.61520373 5.74536377 3.4375 9.0625 C2.7775 9.7225 2.1175 10.3825 1.4375 11.0625 C-1.1875 10.6875 -1.1875 10.6875 -3.5625 10.0625 C-3.58939216 8.58343108 -3.60884621 7.10422517 -3.625 5.625 C-3.63660156 4.80128906 -3.64820313 3.97757812 -3.66015625 3.12890625 C-3.51340586 0.02366796 -3.12550237 0.07623177 0 0 Z M-0.5625 2.0625 C-1.85883621 3.12895115 -1.85883621 3.12895115 -1.625 5.625 C-1.604375 6.429375 -1.58375 7.23375 -1.5625 8.0625 C-0.5725 8.0625 0.4175 8.0625 1.4375 8.0625 C1.4375 6.4125 1.4375 4.7625 1.4375 3.0625 C0.7775 2.7325 0.1175 2.4025 -0.5625 2.0625 Z " fill="#FFFFFF" transform="translate(193.5625,115.9375)"/>
<path d="M0 0 C2.5 0.125 2.5 0.125 3.5 1.125 C3.77314815 6.86111111 3.77314815 6.86111111 3.5 9.125 C2.84 9.785 2.18 10.445 1.5 11.125 C-2.03571429 10.58928571 -2.03571429 10.58928571 -3.5 9.125 C-3.6328125 7.3125 -3.6328125 7.3125 -3.625 5.125 C-3.62757813 4.403125 -3.63015625 3.68125 -3.6328125 2.9375 C-3.42186711 0.05871588 -2.89175802 0.1445879 0 0 Z M-0.5 2.125 C-1.79633621 3.19145115 -1.79633621 3.19145115 -1.5625 5.6875 C-1.541875 6.491875 -1.52125 7.29625 -1.5 8.125 C-0.51 8.125 0.48 8.125 1.5 8.125 C1.5 6.475 1.5 4.825 1.5 3.125 C0.84 2.795 0.18 2.465 -0.5 2.125 Z " fill="#FFFFFF" transform="translate(161.5,115.875)"/>
<path d="M0 0 C1.65 0.33 3.3 0.66 5 1 C5.9765625 7.0546875 5.9765625 7.0546875 6 9 C5.34 9.66 4.68 10.32 4 11 C1.375 10.625 1.375 10.625 -1 10 C-1.33 9.01 -1.66 8.02 -2 7 C-0.68 7.33 0.64 7.66 2 8 C2.33 7.34 2.66 6.68 3 6 C2.34 6 1.68 6 1 6 C1 5.34 1 4.68 1 4 C0.34 4 -0.32 4 -1 4 C-0.67 2.68 -0.34 1.36 0 0 Z M1 2 C1 2.66 1 3.32 1 4 C1.66 4 2.32 4 3 4 C3 3.34 3 2.68 3 2 C2.34 2 1.68 2 1 2 Z " fill="#FFFFFF" transform="translate(351,116)"/>
<path d="M0 0 C0.66 0 1.32 0 2 0 C2.33 1.65 2.66 3.3 3 5 C3.99 5.33 4.98 5.66 6 6 C6 4.02 6 2.04 6 0 C6.66 0 7.32 0 8 0 C8.09765625 6.15234375 8.09765625 6.15234375 8 8 C7 9 7 9 4 9.125 C1 9 1 9 0 8 C-0.14115161 5.32941149 -0.04247107 2.67567762 0 0 Z " fill="#060807" transform="translate(162,100)"/>
<path d="M0 0 C1.65 0 3.3 0 5 0 C5.625 2.3125 5.625 2.3125 6 5 C5.01 6.485 5.01 6.485 4 8 C4.66 8.66 5.32 9.32 6 10 C3.69 10 1.38 10 -1 10 C0.33333333 7.33333333 1.66666667 4.66666667 3 2 C2.34 2 1.68 2 1 2 C1 2.66 1 3.32 1 4 C0.34 4 -0.32 4 -1 4 C-0.67 2.68 -0.34 1.36 0 0 Z " fill="#FFFFFF" transform="translate(339,116)"/>
<path d="M0 0 C1.66611905 -0.042721 3.33382885 -0.04063832 5 0 C6 1 6 1 6.1875 3.4375 C6 6 6 6 4 8 C4.66 8.66 5.32 9.32 6 10 C3.69 10 1.38 10 -1 10 C-0.0022242 7.00667261 0.7522025 6.05233685 3 4 C2.34 4 1.68 4 1 4 C0.34 4 -0.32 4 -1 4 C-0.67 2.68 -0.34 1.36 0 0 Z " fill="#FFFFFF" transform="translate(147,116)"/>
<path d="M0 0 C1.9375 0.375 1.9375 0.375 4 1 C5.32229189 3.64458379 5.09677194 5.67761301 5.0625 8.625 C5.05347656 9.62789062 5.04445313 10.63078125 5.03515625 11.6640625 C5.02355469 12.43492188 5.01195312 13.20578125 5 14 C3.02 14.99 3.02 14.99 1 16 C1.165 15.484375 1.33 14.96875 1.5 14.4375 C2.57426183 9.20047358 2.33791086 4.82194115 0 0 Z " fill="#FFFFFF" transform="translate(386,113)"/>
<path d="M0 0 C0.99 0 1.98 0 3 0 C2.67 0.680625 2.34 1.36125 2 2.0625 C0.54009326 6.35097604 0.26143627 10.19975091 2 14.4375 C2.33 14.953125 2.66 15.46875 3 16 C1.0625 15.625 1.0625 15.625 -1 15 C-2.23184766 12.53630468 -2.16732342 10.8105499 -2.1875 8.0625 C-2.20167969 7.18722656 -2.21585937 6.31195313 -2.23046875 5.41015625 C-2 3 -2 3 0 0 Z " fill="#FFFFFF" transform="translate(279,113)"/>
<path d="M0 0 C2.97 0 5.94 0 9 0 C9 0.66 9 1.32 9 2 C8.01 2 7.02 2 6 2 C6 4.31 6 6.62 6 9 C5.01 9 4.02 9 3 9 C3 6.69 3 4.38 3 2 C2.01 2 1.02 2 0 2 C0 1.34 0 0.68 0 0 Z " fill="#060807" transform="translate(176,100)"/>
<path d="M0 0 C0.99 0 1.98 0 3 0 C3 2.31 3 4.62 3 7 C3.99 7 4.98 7 6 7 C6 7.99 6 8.98 6 10 C4.02 10 2.04 10 0 10 C0 6.7 0 3.4 0 0 Z " fill="#060807" transform="translate(257,99)"/>
<path d="M0 0 C1.32 0 2.64 0 4 0 C4 3.63 4 7.26 4 11 C3.01 11 2.02 11 1 11 C0.67 7.37 0.34 3.74 0 0 Z " fill="#FFFFFF" transform="translate(286,116)"/>
<path d="M0 0 C1.32 0 2.64 0 4 0 C4 3.63 4 7.26 4 11 C3.01 11 2.02 11 1 11 C0.67 7.37 0.34 3.74 0 0 Z " fill="#FFFFFF" transform="translate(233,116)"/>
<path d="M0 0 C0.99 0 1.98 0 3 0 C3 3.63 3 7.26 3 11 C2.34 11 1.68 11 1 11 C0.67 7.37 0.34 3.74 0 0 Z " fill="#FFFFFF" transform="translate(294,116)"/>
<path d="M0 0 C0.99 0 1.98 0 3 0 C3 3.63 3 7.26 3 11 C2.34 11 1.68 11 1 11 C0.67 7.37 0.34 3.74 0 0 Z " fill="#FFFFFF" transform="translate(202,116)"/>
<path d="M0 0 C0.99 0 1.98 0 3 0 C3 3.63 3 7.26 3 11 C2.34 11 1.68 11 1 11 C0.67 7.37 0.34 3.74 0 0 Z " fill="#FFFFFF" transform="translate(170,116)"/>
<path d="M0 0 C1.98 0 3.96 0 6 0 C6 0.66 6 1.32 6 2 C4.02 2 2.04 2 0 2 C0 1.34 0 0.68 0 0 Z " fill="#FFFFFF" transform="translate(361,120)"/>
</svg>
